<svg xmlns="http://www.w3.org/2000/svg" width="25.94" height="15.969" viewBox="0 0 25.94 15.969">
  <defs>
    <style>
      .cls-1 {
        fill: #6c6a68;
        fill-rule: evenodd;
        opacity: 0.5;
      }
    </style>
  </defs>
  <path id="behance" class="cls-1" d="M1173.74,40.136a2.752,2.752,0,0,0,2.46-2.974c0-2.8-2.01-4.161-4.56-4.161h-8.37V48.629h8.37s5.11,0.157,5.11-4.613C1176.75,44.016,1176.98,40.136,1173.74,40.136Zm-6.78-4.357h4.68s1.14,0,1.14,1.626-0.67,1.862-1.43,1.862h-4.39V35.778Zm4.47,10.073h-4.47V41.675h4.68s1.7-.021,1.7,2.146A1.783,1.783,0,0,1,1171.43,45.852Zm8.68-11.931h6.64v1.925h-6.64V33.921Zm3.46,3.056c-6.19,0-6.18,6-6.18,6s-0.43,5.975,6.18,5.975c0,0,5.51.305,5.51-4.157h-2.83s0.09,1.681-2.58,1.681a2.6,2.6,0,0,1-2.84-2.72h8.34S1190.08,36.977,1183.57,36.977Zm2.52,4.7h-5.29a2.839,2.839,0,0,1,2.83-2.409A2.351,2.351,0,0,1,1186.09,41.675Z" transform="translate(-1163.28 -33)"/>
</svg>
