<svg xmlns="http://www.w3.org/2000/svg" width="18" height="18" viewBox="0 0 18 18">
  <defs>
    <style>
      .cls-1 {
        fill: #6c6a68;
        fill-rule: evenodd;
        opacity: 0.5;
      }
    </style>
  </defs>
  <path id="instagram" class="cls-1" d="M1300.03,32h-8.06a4.975,4.975,0,0,0-4.97,4.967v8.065A4.975,4.975,0,0,0,1291.97,50h8.06a4.975,4.975,0,0,0,4.97-4.968V36.967A4.975,4.975,0,0,0,1300.03,32Zm3.37,13.033a3.373,3.373,0,0,1-3.37,3.37h-8.06a3.373,3.373,0,0,1-3.37-3.37V36.967a3.373,3.373,0,0,1,3.37-3.37h8.06a3.373,3.373,0,0,1,3.37,3.37v8.065h0Zm-7.4-8.671A4.638,4.638,0,1,0,1300.64,41,4.643,4.643,0,0,0,1296,36.362Zm0,7.679A3.041,3.041,0,1,1,1299.04,41,3.042,3.042,0,0,1,1296,44.041Zm4.83-9.033a1.142,1.142,0,0,0-.82.343,1.155,1.155,0,0,0,0,1.657,1.147,1.147,0,0,0,.82.343,1.188,1.188,0,0,0,.83-0.343,1.179,1.179,0,0,0,0-1.657A1.183,1.183,0,0,0,1300.83,35.008Z" transform="translate(-1287 -32)"/>
</svg>
