<svg xmlns="http://www.w3.org/2000/svg" width="19" height="16" viewBox="0 0 19 16">
  <defs>
    <style>
      .cls-1 {
        fill: #6c6a68;
        fill-rule: evenodd;
        opacity: 0.5;
      }
    </style>
  </defs>
  <path id="twitter" class="cls-1" d="M1262.48,33.3a7.734,7.734,0,0,1-2.48.981A3.82,3.82,0,0,0,1257.15,33a4.067,4.067,0,0,0-3.79,4.96,10.967,10.967,0,0,1-8.04-4.221,4.181,4.181,0,0,0-.52,2.031,4.088,4.088,0,0,0,1.73,3.362,3.815,3.815,0,0,1-1.77-.507v0.05a4.017,4.017,0,0,0,3.13,3.962,3.76,3.76,0,0,1-1.76.069,3.933,3.933,0,0,0,3.64,2.806,7.632,7.632,0,0,1-4.84,1.729,7.862,7.862,0,0,1-.93-0.056A10.756,10.756,0,0,0,1249.97,49c7.17,0,11.09-6.156,11.09-11.5l-0.01-.523a7.89,7.89,0,0,0,1.95-2.089,7.6,7.6,0,0,1-2.24.637A4.063,4.063,0,0,0,1262.48,33.3Z" transform="translate(-1244 -33)"/>
</svg>
